<svg width="195" height="168" viewBox="0 0 195 168" fill="none" xmlns="http://www.w3.org/2000/svg"><circle cx="3.17318" cy="3.17318" r="2.57318" transform="matrix(-0.71934 0.694658 0.694658 0.71934 51.3963 80.7542)" stroke="#9A9A9A" stroke-width="1.2"/><path d="M35.0589 71.8153C34.5775 72.2802 34.5641 73.0472 35.029 73.5286L48.3915 87.3659C48.5077 87.4863 48.6995 87.4896 48.8198 87.3734C49.1809 87.0247 49.1909 86.4494 48.8423 86.0884L35.0589 71.8153Z" fill="#9A9A9A"/><circle cx="40.0335" cy="90.2762" r="2.57318" stroke="#545454" stroke-width="1.2"/><path d="M41.9168 68.9475C42.586 68.9475 43.1285 69.49 43.1285 70.1592V89.2437C43.1285 89.411 42.9929 89.5467 42.8256 89.5467C42.3237 89.5467 41.9168 89.1398 41.9168 88.6379V68.9475Z" fill="#545454"/><rect x="23.3316" y="75.7092" width="27.8292" height="4.85446" rx="2.42723" transform="rotate(-30 23.3316 75.7092)" stroke="#8A8A8A" stroke-width="3.5"/><rect x="2.73205" y="85.4792" width="29.4178" height="8.53169" rx="4.26584" transform="rotate(-30 2.73205 85.4792)" stroke="#B1B1B1" stroke-width="4"/><rect x="42.5255" y="62.5045" width="29.4178" height="8.53169" rx="4.26584" transform="rotate(-30 42.5255 62.5045)" stroke="#B1B1B1" stroke-width="4"/><rect x="33.0569" y="74.3571" width="17.7165" height="2.41271" rx="1.20635" transform="rotate(-30 33.0569 74.3571)" fill="#8A8A8A" stroke="#8A8A8A"/><rect x="24.587" y="73.9672" width="17.8172" height="1.73525" rx="0.867626" transform="rotate(-30 24.587 73.9672)" stroke="#8A8A8A" stroke-width="1.73525"/><path d="M42 68.4976C42.5523 68.4976 43 68.9453 43 69.4976V89.2476C43 89.3856 42.8881 89.4976 42.75 89.4976C42.3358 89.4976 42 89.1618 42 88.7476V68.4976Z" fill="#545454"/><path d="M85.1075 68.2434C84.1675 68.2434 83.4225 67.9584 82.8725 67.3884C82.3325 66.8184 82.0625 66.0134 82.0625 64.9734V60.6534C82.0625 59.6034 82.3325 58.7934 82.8725 58.2234C83.4125 57.6534 84.1525 57.3684 85.0925 57.3684C86.0525 57.3684 86.8025 57.6484 87.3425 58.2084C87.8825 58.7584 88.1725 59.5534 88.2125 60.5934H86.7125C86.6725 59.9834 86.5175 59.5334 86.2475 59.2434C85.9775 58.9534 85.5875 58.8084 85.0775 58.8084C84.6175 58.8084 84.2575 58.9634 83.9975 59.2734C83.7375 59.5834 83.6075 60.0434 83.6075 60.6534V64.9734C83.6075 65.5834 83.7375 66.0434 83.9975 66.3534C84.2675 66.6534 84.6375 66.8034 85.1075 66.8034C85.6175 66.8034 86.0075 66.6584 86.2775 66.3684C86.5575 66.0784 86.7225 65.6334 86.7725 65.0334H88.2725C88.2225 66.0634 87.9225 66.8584 87.3725 67.4184C86.8325 67.9684 86.0775 68.2434 85.1075 68.2434ZM92.1603 68.2434C91.3003 68.2434 90.6203 67.9834 90.1203 67.4634C89.6303 66.9434 89.3853 66.2034 89.3853 65.2434V62.9634C89.3853 62.0034 89.6303 61.2634 90.1203 60.7434C90.6203 60.2234 91.3003 59.9634 92.1603 59.9634C93.0303 59.9634 93.7103 60.2234 94.2003 60.7434C94.7003 61.2634 94.9503 62.0034 94.9503 62.9634V65.2434C94.9503 66.2034 94.7003 66.9434 94.2003 67.4634C93.7103 67.9834 93.0303 68.2434 92.1603 68.2434ZM92.1603 66.8334C93.0403 66.8334 93.4803 66.3034 93.4803 65.2434V62.9634C93.4803 61.9034 93.0403 61.3734 92.1603 61.3734C91.2903 61.3734 90.8553 61.9034 90.8553 62.9634V65.2434C90.8553 66.3034 91.2903 66.8334 92.1603 66.8334ZM98.4737 64.6734L97.9487 65.2434V68.0634H96.5087V60.1584H97.9487V63.5184L98.8787 62.0634L100.184 60.1584H101.909L99.4187 63.5334L102.284 68.0634H100.619L98.4737 64.6734ZM106.07 59.9784C106.83 59.9784 107.44 60.2534 107.9 60.8034C108.36 61.3434 108.59 62.0884 108.59 63.0384V65.2134C108.59 66.1634 108.36 66.9084 107.9 67.4484C107.45 67.9784 106.84 68.2434 106.07 68.2434C105.78 68.2434 105.5 68.1884 105.23 68.0784C104.97 67.9684 104.745 67.8134 104.555 67.6134V70.7634H103.13V60.1434H104.18L104.285 60.8784C104.485 60.6184 104.745 60.4034 105.065 60.2334C105.395 60.0634 105.73 59.9784 106.07 59.9784ZM107.105 63.0384C107.105 61.9084 106.68 61.3434 105.83 61.3434C105.44 61.3434 105.13 61.4884 104.9 61.7784C104.67 62.0584 104.555 62.4734 104.555 63.0234V65.2134C104.555 65.7334 104.665 66.1434 104.885 66.4434C105.115 66.7334 105.43 66.8784 105.83 66.8784C106.26 66.8784 106.58 66.7434 106.79 66.4734C107 66.2034 107.105 65.7834 107.105 65.2134V63.0384ZM112.637 59.9634C113.477 59.9634 114.112 60.2084 114.542 60.6984C114.982 61.1884 115.202 61.8934 115.202 62.8134V68.0634H114.017L113.912 67.3134C113.742 67.6034 113.507 67.8334 113.207 68.0034C112.917 68.1734 112.567 68.2584 112.157 68.2584C111.427 68.2584 110.837 68.0384 110.387 67.5984C109.947 67.1484 109.727 66.5534 109.727 65.8134C109.727 65.0234 109.982 64.4234 110.492 64.0134C111.002 63.5934 111.702 63.3834 112.592 63.3834H113.747V62.8134C113.747 61.8434 113.367 61.3584 112.607 61.3584C112.277 61.3584 112.002 61.4484 111.782 61.6284C111.572 61.8084 111.447 62.0684 111.407 62.4084H109.952C109.992 61.6484 110.252 61.0534 110.732 60.6234C111.212 60.1834 111.847 59.9634 112.637 59.9634ZM113.747 64.5984H112.592C112.142 64.5984 111.797 64.7034 111.557 64.9134C111.317 65.1234 111.197 65.4234 111.197 65.8134C111.197 66.1734 111.307 66.4584 111.527 66.6684C111.747 66.8684 112.057 66.9684 112.457 66.9684C112.857 66.9684 113.172 66.8484 113.402 66.6084C113.632 66.3684 113.747 66.0434 113.747 65.6334V64.5984ZM125.013 68.0634H116.943V60.1584H118.383V66.7134H120.513V60.1584H121.953V66.7134H124.068V60.1584H125.508V66.7434H126.393V69.8184H125.013V68.0634ZM130.024 59.9634C130.864 59.9634 131.499 60.2084 131.929 60.6984C132.369 61.1884 132.589 61.8934 132.589 62.8134V68.0634H131.404L131.299 67.3134C131.129 67.6034 130.894 67.8334 130.594 68.0034C130.304 68.1734 129.954 68.2584 129.544 68.2584C128.814 68.2584 128.224 68.0384 127.774 67.5984C127.334 67.1484 127.114 66.5534 127.114 65.8134C127.114 65.0234 127.369 64.4234 127.879 64.0134C128.389 63.5934 129.089 63.3834 129.979 63.3834H131.134V62.8134C131.134 61.8434 130.754 61.3584 129.994 61.3584C129.664 61.3584 129.389 61.4484 129.169 61.6284C128.959 61.8084 128.834 62.0684 128.794 62.4084H127.339C127.379 61.6484 127.639 61.0534 128.119 60.6234C128.599 60.1834 129.234 59.9634 130.024 59.9634ZM131.134 64.5984H129.979C129.529 64.5984 129.184 64.7034 128.944 64.9134C128.704 65.1234 128.584 65.4234 128.584 65.8134C128.584 66.1734 128.694 66.4584 128.914 66.6684C129.134 66.8684 129.444 66.9684 129.844 66.9684C130.244 66.9684 130.559 66.8484 130.789 66.6084C131.019 66.3684 131.134 66.0434 131.134 65.6334V64.5984ZM134.331 60.1584H135.741V63.4884C135.741 64.3784 135.731 65.1084 135.711 65.6784L135.756 65.7084C135.876 65.3184 136.151 64.5734 136.581 63.4734L138.111 60.1584H139.596V68.0634H138.186V65.0334C138.186 64.2134 138.211 63.3634 138.261 62.4834L138.216 62.4684C138.176 62.6484 138.056 63.0234 137.856 63.5934C137.656 64.1534 137.481 64.5884 137.331 64.8984L135.816 68.0634H134.331V60.1584ZM136.986 58.9284C136.456 58.9284 136.026 58.7684 135.696 58.4484C135.366 58.1284 135.191 57.6884 135.171 57.1284H136.206C136.216 57.3884 136.286 57.5884 136.416 57.7284C136.556 57.8584 136.741 57.9234 136.971 57.9234C137.201 57.9234 137.386 57.8584 137.526 57.7284C137.666 57.5884 137.741 57.3884 137.751 57.1284H138.786C138.766 57.6984 138.591 58.1434 138.261 58.4634C137.941 58.7734 137.516 58.9284 136.986 58.9284ZM144.556 60.1584H145.966V63.4884C145.966 64.3784 145.956 65.1084 145.936 65.6784L145.981 65.7084C146.101 65.3184 146.376 64.5734 146.806 63.4734L148.336 60.1584H149.821V68.0634H148.411V65.0334C148.411 64.2134 148.436 63.3634 148.486 62.4834L148.441 62.4684C148.401 62.6484 148.281 63.0234 148.081 63.5934C147.881 64.1534 147.706 64.5884 147.556 64.8984L146.041 68.0634H144.556V60.1584ZM93.1814 82.8634C93.6014 83.0234 93.9164 83.2784 94.1264 83.6284C94.3464 83.9684 94.4564 84.3484 94.4564 84.7684C94.4564 85.4984 94.2214 86.0634 93.7514 86.4634C93.2914 86.8634 92.6064 87.0634 91.6964 87.0634H89.2064V79.1584H91.5764C92.3664 79.1584 92.9764 79.3534 93.4064 79.7434C93.8364 80.1234 94.0514 80.6584 94.0514 81.3484C94.0514 81.6384 93.9714 81.9184 93.8114 82.1884C93.6614 82.4584 93.4514 82.6834 93.1814 82.8634ZM90.6164 82.3984H91.5014C91.8714 82.3984 92.1514 82.3134 92.3414 82.1434C92.5314 81.9634 92.6264 81.7084 92.6264 81.3784C92.6264 81.0684 92.5264 80.8234 92.3264 80.6434C92.1364 80.4634 91.8564 80.3734 91.4864 80.3734H90.6164V82.3984ZM91.7564 85.8334C92.5964 85.8334 93.0164 85.4634 93.0164 84.7234C93.0164 83.9934 92.5964 83.6284 91.7564 83.6284H90.6164V85.8334H91.7564ZM94.9429 85.7734C95.3129 85.7734 95.5679 85.6034 95.7079 85.2634C95.8479 84.9234 95.9529 84.3884 96.0229 83.6584C96.1429 82.1184 96.2179 80.6184 96.2479 79.1584H100.853V87.0634H99.4129V80.4934H97.6429C97.6329 80.9534 97.6079 81.5234 97.5679 82.2034C97.5379 82.8734 97.4979 83.4384 97.4479 83.8984C97.3479 85.0084 97.0979 85.8334 96.6979 86.3734C96.2979 86.9034 95.7129 87.1684 94.9429 87.1684V85.7734ZM105.1 78.9634C105.94 78.9634 106.575 79.2084 107.005 79.6984C107.445 80.1884 107.665 80.8934 107.665 81.8134V87.0634H106.48L106.375 86.3134C106.205 86.6034 105.97 86.8334 105.67 87.0034C105.38 87.1734 105.03 87.2584 104.62 87.2584C103.89 87.2584 103.3 87.0384 102.85 86.5984C102.41 86.1484 102.19 85.5534 102.19 84.8134C102.19 84.0234 102.445 83.4234 102.955 83.0134C103.465 82.5934 104.165 82.3834 105.055 82.3834H106.21V81.8134C106.21 80.8434 105.83 80.3584 105.07 80.3584C104.74 80.3584 104.465 80.4484 104.245 80.6284C104.035 80.8084 103.91 81.0684 103.87 81.4084H102.415C102.455 80.6484 102.715 80.0534 103.195 79.6234C103.675 79.1834 104.31 78.9634 105.1 78.9634ZM106.21 83.5984H105.055C104.605 83.5984 104.26 83.7034 104.02 83.9134C103.78 84.1234 103.66 84.4234 103.66 84.8134C103.66 85.1734 103.77 85.4584 103.99 85.6684C104.21 85.8684 104.52 85.9684 104.92 85.9684C105.32 85.9684 105.635 85.8484 105.865 85.6084C106.095 85.3684 106.21 85.0434 106.21 84.6334V83.5984ZM111.897 87.2284C111.067 87.2284 110.412 86.9784 109.932 86.4784C109.462 85.9684 109.227 85.2534 109.227 84.3334V81.8434C109.227 80.9334 109.462 80.2284 109.932 79.7284C110.412 79.2184 111.067 78.9634 111.897 78.9634C112.757 78.9634 113.427 79.2134 113.907 79.7134C114.387 80.2134 114.637 80.9234 114.657 81.8434H113.202C113.162 80.8534 112.732 80.3584 111.912 80.3584C111.522 80.3584 111.222 80.4834 111.012 80.7334C110.802 80.9834 110.697 81.3534 110.697 81.8434V84.3334C110.697 84.8334 110.802 85.2084 111.012 85.4584C111.222 85.7084 111.522 85.8334 111.912 85.8334C112.742 85.8334 113.177 85.3334 113.217 84.3334H114.672C114.652 85.2534 114.397 85.9684 113.907 86.4784C113.417 86.9784 112.747 87.2284 111.897 87.2284ZM120.289 80.5234H118.474V87.0634H117.034V80.5234H115.234V79.1584H120.289V80.5234ZM125.276 82.8634C125.696 83.0234 126.011 83.2784 126.221 83.6284C126.441 83.9684 126.551 84.3484 126.551 84.7684C126.551 85.4984 126.316 86.0634 125.846 86.4634C125.386 86.8634 124.701 87.0634 123.791 87.0634H121.301V79.1584H123.671C124.461 79.1584 125.071 79.3534 125.501 79.7434C125.931 80.1234 126.146 80.6584 126.146 81.3484C126.146 81.6384 126.066 81.9184 125.906 82.1884C125.756 82.4584 125.546 82.6834 125.276 82.8634ZM122.711 82.3984H123.596C123.966 82.3984 124.246 82.3134 124.436 82.1434C124.626 81.9634 124.721 81.7084 124.721 81.3784C124.721 81.0684 124.621 80.8234 124.421 80.6434C124.231 80.4634 123.951 80.3734 123.581 80.3734H122.711V82.3984ZM123.851 85.8334C124.691 85.8334 125.111 85.4634 125.111 84.7234C125.111 83.9934 124.691 83.6284 123.851 83.6284H122.711V85.8334H123.851ZM132.866 79.1584L130.301 87.6784C130.081 88.3984 129.806 88.9484 129.476 89.3284C129.156 89.7184 128.711 89.9134 128.141 89.9134H127.361V88.5034H127.856C128.146 88.5034 128.371 88.4134 128.531 88.2334C128.701 88.0534 128.841 87.7834 128.951 87.4234L129.281 86.2984L126.746 79.1584H128.306L129.311 82.1884L129.911 84.1234L130.481 82.2034L131.381 79.1584H132.866ZM133.796 79.1584H135.206V82.4884C135.206 83.3784 135.196 84.1084 135.176 84.6784L135.221 84.7084C135.341 84.3184 135.616 83.5734 136.046 82.4734L137.576 79.1584H139.061V87.0634H137.651V84.0334C137.651 83.2134 137.676 82.3634 137.726 81.4834L137.681 81.4684C137.641 81.6484 137.521 82.0234 137.321 82.5934C137.121 83.1534 136.946 83.5884 136.796 83.8984L135.281 87.0634H133.796V79.1584ZM136.451 77.9284C135.921 77.9284 135.491 77.7684 135.161 77.4484C134.831 77.1284 134.656 76.6884 134.636 76.1284H135.671C135.681 76.3884 135.751 76.5884 135.881 76.7284C136.021 76.8584 136.206 76.9234 136.436 76.9234C136.666 76.9234 136.851 76.8584 136.991 76.7284C137.131 76.5884 137.206 76.3884 137.216 76.1284H138.251C138.231 76.6984 138.056 77.1434 137.726 77.4634C137.406 77.7734 136.981 77.9284 136.451 77.9284ZM141.068 76.5634H142.523V84.5584H141.068V76.5634ZM141.803 87.2284C141.523 87.2284 141.298 87.1484 141.128 86.9884C140.968 86.8184 140.888 86.5934 140.888 86.3134C140.888 86.0434 140.968 85.8284 141.128 85.6684C141.298 85.4984 141.523 85.4134 141.803 85.4134C142.073 85.4134 142.288 85.4984 142.448 85.6684C142.618 85.8284 142.703 86.0434 142.703 86.3134C142.703 86.5934 142.618 86.8184 142.448 86.9884C142.288 87.1484 142.073 87.2284 141.803 87.2284Z" fill="#9A9A9A"/></svg>